<?xml version="1.0" encoding="utf-8" standalone="no"?>
<!DOCTYPE svg PUBLIC "-//W3C//DTD SVG 1.1//EN"
  "http://www.w3.org/Graphics/SVG/1.1/DTD/svg11.dtd">
<svg xmlns:xlink="http://www.w3.org/1999/xlink" width="712.817321pt" height="424.8075pt" viewBox="0 0 712.817321 424.8075" xmlns="http://www.w3.org/2000/svg" version="1.1">
 <metadata>
  <rdf:RDF xmlns:dc="http://purl.org/dc/elements/1.1/" xmlns:cc="http://creativecommons.org/ns#" xmlns:rdf="http://www.w3.org/1999/02/22-rdf-syntax-ns#">
   <cc:Work>
    <dc:type rdf:resource="http://purl.org/dc/dcmitype/StillImage"/>
    <dc:date>2026-01-15T16:58:08.641592</dc:date>
    <dc:format>image/svg+xml</dc:format>
    <dc:creator>
     <cc:Agent>
      <dc:title>Matplotlib v3.10.8, https://matplotlib.org/</dc:title>
     </cc:Agent>
    </dc:creator>
   </cc:Work>
  </rdf:RDF>
 </metadata>
 <defs>
  <style type="text/css">*{stroke-linejoin: round; stroke-linecap: butt}</style>
 </defs>
 <g id="figure_1">
  <g id="patch_1">
   <path d="M -0 424.8075 
L 712.817321 424.8075 
L 712.817321 0 
L -0 0 
z
" style="fill: #ffffff"/>
  </g>
  <g id="axes_1">
   <g id="patch_2">
    <path d="M 55.249375 383.38 
L 705.617321 383.38 
L 705.617321 7.2 
L 55.249375 7.2 
z
" style="fill: #ffffff"/>
   </g>
   <g id="matplotlib.axis_1">
    <g id="xtick_1">
     <g id="line2d_1">
      <path d="M 93.766298 383.38 
L 93.766298 7.2 
" clip-path="url(#p4d26aca4d3)" style="fill: none; stroke: #dddddd; stroke-linecap: square"/>
     </g>
     <g id="line2d_2">
      <defs>
       <path id="m21ab8692fe" d="M 0 0 
L 0 3.5 
" style="stroke: #000000; stroke-width: 0.8"/>
      </defs>
      <g>
       <use xlink:href="#m21ab8692fe" x="93.766298" y="383.38" style="stroke: #000000; stroke-width: 0.8"/>
      </g>
     </g>
     <g id="text_1">
      <!-- 20 -->
      <g transform="translate(87.403798 397.978437) scale(0.1 -0.1)">
       <defs>
        <path id="DejaVuSans-32" d="M 1228 531 
L 3431 531 
L 3431 0 
L 469 0 
L 469 531 
Q 828 903 1448 1529 
Q 2069 2156 2228 2338 
Q 2531 2678 2651 2914 
Q 2772 3150 2772 3378 
Q 2772 3750 2511 3984 
Q 2250 4219 1831 4219 
Q 1534 4219 1204 4116 
Q 875 4013 500 3803 
L 500 4441 
Q 881 4594 1212 4672 
Q 1544 4750 1819 4750 
Q 2544 4750 2975 4387 
Q 3406 4025 3406 3419 
Q 3406 3131 3298 2873 
Q 3191 2616 2906 2266 
Q 2828 2175 2409 1742 
Q 1991 1309 1228 531 
z
" transform="scale(0.015625)"/>
        <path id="DejaVuSans-30" d="M 2034 4250 
Q 1547 4250 1301 3770 
Q 1056 3291 1056 2328 
Q 1056 1369 1301 889 
Q 1547 409 2034 409 
Q 2525 409 2770 889 
Q 3016 1369 3016 2328 
Q 3016 3291 2770 3770 
Q 2525 4250 2034 4250 
z
M 2034 4750 
Q 2819 4750 3233 4129 
Q 3647 3509 3647 2328 
Q 3647 1150 3233 529 
Q 2819 -91 2034 -91 
Q 1250 -91 836 529 
Q 422 1150 422 2328 
Q 422 3509 836 4129 
Q 1250 4750 2034 4750 
z
" transform="scale(0.015625)"/>
       </defs>
       <use xlink:href="#DejaVuSans-32"/>
       <use xlink:href="#DejaVuSans-30" transform="translate(63.623047 0)"/>
      </g>
     </g>
    </g>
    <g id="xtick_2">
     <g id="line2d_3">
      <path d="M 205.52597 383.38 
L 205.52597 7.2 
" clip-path="url(#p4d26aca4d3)" style="fill: none; stroke: #dddddd; stroke-linecap: square"/>
     </g>
     <g id="line2d_4">
      <g>
       <use xlink:href="#m21ab8692fe" x="205.52597" y="383.38" style="stroke: #000000; stroke-width: 0.8"/>
      </g>
     </g>
     <g id="text_2">
      <!-- 30 -->
      <g transform="translate(199.16347 397.978437) scale(0.1 -0.1)">
       <defs>
        <path id="DejaVuSans-33" d="M 2597 2516 
Q 3050 2419 3304 2112 
Q 3559 1806 3559 1356 
Q 3559 666 3084 287 
Q 2609 -91 1734 -91 
Q 1441 -91 1130 -33 
Q 819 25 488 141 
L 488 750 
Q 750 597 1062 519 
Q 1375 441 1716 441 
Q 2309 441 2620 675 
Q 2931 909 2931 1356 
Q 2931 1769 2642 2001 
Q 2353 2234 1838 2234 
L 1294 2234 
L 1294 2753 
L 1863 2753 
Q 2328 2753 2575 2939 
Q 2822 3125 2822 3475 
Q 2822 3834 2567 4026 
Q 2313 4219 1838 4219 
Q 1578 4219 1281 4162 
Q 984 4106 628 3988 
L 628 4550 
Q 988 4650 1302 4700 
Q 1616 4750 1894 4750 
Q 2613 4750 3031 4423 
Q 3450 4097 3450 3541 
Q 3450 3153 3228 2886 
Q 3006 2619 2597 2516 
z
" transform="scale(0.015625)"/>
       </defs>
       <use xlink:href="#DejaVuSans-33"/>
       <use xlink:href="#DejaVuSans-30" transform="translate(63.623047 0)"/>
      </g>
     </g>
    </g>
    <g id="xtick_3">
     <g id="line2d_5">
      <path d="M 317.285641 383.38 
L 317.285641 7.2 
" clip-path="url(#p4d26aca4d3)" style="fill: none; stroke: #dddddd; stroke-linecap: square"/>
     </g>
     <g id="line2d_6">
      <g>
       <use xlink:href="#m21ab8692fe" x="317.285641" y="383.38" style="stroke: #000000; stroke-width: 0.8"/>
      </g>
     </g>
     <g id="text_3">
      <!-- 40 -->
      <g transform="translate(310.923141 397.978437) scale(0.1 -0.1)">
       <defs>
        <path id="DejaVuSans-34" d="M 2419 4116 
L 825 1625 
L 2419 1625 
L 2419 4116 
z
M 2253 4666 
L 3047 4666 
L 3047 1625 
L 3713 1625 
L 3713 1100 
L 3047 1100 
L 3047 0 
L 2419 0 
L 2419 1100 
L 313 1100 
L 313 1709 
L 2253 4666 
z
" transform="scale(0.015625)"/>
       </defs>
       <use xlink:href="#DejaVuSans-34"/>
       <use xlink:href="#DejaVuSans-30" transform="translate(63.623047 0)"/>
      </g>
     </g>
    </g>
    <g id="xtick_4">
     <g id="line2d_7">
      <path d="M 429.045313 383.38 
L 429.045313 7.2 
" clip-path="url(#p4d26aca4d3)" style="fill: none; stroke: #dddddd; stroke-linecap: square"/>
     </g>
     <g id="line2d_8">
      <g>
       <use xlink:href="#m21ab8692fe" x="429.045313" y="383.38" style="stroke: #000000; stroke-width: 0.8"/>
      </g>
     </g>
     <g id="text_4">
      <!-- 50 -->
      <g transform="translate(422.682813 397.978437) scale(0.1 -0.1)">
       <defs>
        <path id="DejaVuSans-35" d="M 691 4666 
L 3169 4666 
L 3169 4134 
L 1269 4134 
L 1269 2991 
Q 1406 3038 1543 3061 
Q 1681 3084 1819 3084 
Q 2600 3084 3056 2656 
Q 3513 2228 3513 1497 
Q 3513 744 3044 326 
Q 2575 -91 1722 -91 
Q 1428 -91 1123 -41 
Q 819 9 494 109 
L 494 744 
Q 775 591 1075 516 
Q 1375 441 1709 441 
Q 2250 441 2565 725 
Q 2881 1009 2881 1497 
Q 2881 1984 2565 2268 
Q 2250 2553 1709 2553 
Q 1456 2553 1204 2497 
Q 953 2441 691 2322 
L 691 4666 
z
" transform="scale(0.015625)"/>
       </defs>
       <use xlink:href="#DejaVuSans-35"/>
       <use xlink:href="#DejaVuSans-30" transform="translate(63.623047 0)"/>
      </g>
     </g>
    </g>
    <g id="xtick_5">
     <g id="line2d_9">
      <path d="M 540.804984 383.38 
L 540.804984 7.2 
" clip-path="url(#p4d26aca4d3)" style="fill: none; stroke: #dddddd; stroke-linecap: square"/>
     </g>
     <g id="line2d_10">
      <g>
       <use xlink:href="#m21ab8692fe" x="540.804984" y="383.38" style="stroke: #000000; stroke-width: 0.8"/>
      </g>
     </g>
     <g id="text_5">
      <!-- 60 -->
      <g transform="translate(534.442484 397.978437) scale(0.1 -0.1)">
       <defs>
        <path id="DejaVuSans-36" d="M 2113 2584 
Q 1688 2584 1439 2293 
Q 1191 2003 1191 1497 
Q 1191 994 1439 701 
Q 1688 409 2113 409 
Q 2538 409 2786 701 
Q 3034 994 3034 1497 
Q 3034 2003 2786 2293 
Q 2538 2584 2113 2584 
z
M 3366 4563 
L 3366 3988 
Q 3128 4100 2886 4159 
Q 2644 4219 2406 4219 
Q 1781 4219 1451 3797 
Q 1122 3375 1075 2522 
Q 1259 2794 1537 2939 
Q 1816 3084 2150 3084 
Q 2853 3084 3261 2657 
Q 3669 2231 3669 1497 
Q 3669 778 3244 343 
Q 2819 -91 2113 -91 
Q 1303 -91 875 529 
Q 447 1150 447 2328 
Q 447 3434 972 4092 
Q 1497 4750 2381 4750 
Q 2619 4750 2861 4703 
Q 3103 4656 3366 4563 
z
" transform="scale(0.015625)"/>
       </defs>
       <use xlink:href="#DejaVuSans-36"/>
       <use xlink:href="#DejaVuSans-30" transform="translate(63.623047 0)"/>
      </g>
     </g>
    </g>
    <g id="xtick_6">
     <g id="line2d_11">
      <path d="M 652.564656 383.38 
L 652.564656 7.2 
" clip-path="url(#p4d26aca4d3)" style="fill: none; stroke: #dddddd; stroke-linecap: square"/>
     </g>
     <g id="line2d_12">
      <g>
       <use xlink:href="#m21ab8692fe" x="652.564656" y="383.38" style="stroke: #000000; stroke-width: 0.8"/>
      </g>
     </g>
     <g id="text_6">
      <!-- 70 -->
      <g transform="translate(646.202156 397.978437) scale(0.1 -0.1)">
       <defs>
        <path id="DejaVuSans-37" d="M 525 4666 
L 3525 4666 
L 3525 4397 
L 1831 0 
L 1172 0 
L 2766 4134 
L 525 4134 
L 525 4666 
z
" transform="scale(0.015625)"/>
       </defs>
       <use xlink:href="#DejaVuSans-37"/>
       <use xlink:href="#DejaVuSans-30" transform="translate(63.623047 0)"/>
      </g>
     </g>
    </g>
    <g id="text_7">
     <!-- Compression ratio (%) -->
     <g transform="translate(300.761317 414.695937) scale(0.14 -0.14)">
      <defs>
       <path id="DejaVuSerif-43" d="M 4513 1234 
Q 4306 581 3820 245 
Q 3334 -91 2591 -91 
Q 2134 -91 1743 65 
Q 1353 222 1050 525 
Q 700 875 529 1320 
Q 359 1766 359 2328 
Q 359 3416 987 4083 
Q 1616 4750 2644 4750 
Q 3025 4750 3456 4650 
Q 3888 4550 4384 4347 
L 4384 3272 
L 4031 3272 
Q 3916 3859 3567 4137 
Q 3219 4416 2591 4416 
Q 1844 4416 1459 3886 
Q 1075 3356 1075 2328 
Q 1075 1303 1459 773 
Q 1844 244 2591 244 
Q 3113 244 3450 492 
Q 3788 741 3938 1234 
L 4513 1234 
z
" transform="scale(0.015625)"/>
       <path id="DejaVuSerif-6f" d="M 1925 219 
Q 2388 219 2623 584 
Q 2859 950 2859 1663 
Q 2859 2375 2623 2739 
Q 2388 3103 1925 3103 
Q 1463 3103 1227 2739 
Q 991 2375 991 1663 
Q 991 950 1228 584 
Q 1466 219 1925 219 
z
M 1925 -91 
Q 1200 -91 759 389 
Q 319 869 319 1663 
Q 319 2456 758 2934 
Q 1197 3413 1925 3413 
Q 2653 3413 3092 2934 
Q 3531 2456 3531 1663 
Q 3531 869 3092 389 
Q 2653 -91 1925 -91 
z
" transform="scale(0.015625)"/>
       <path id="DejaVuSerif-6d" d="M 3316 2675 
Q 3481 3041 3739 3227 
Q 3997 3413 4341 3413 
Q 4863 3413 5119 3089 
Q 5375 2766 5375 2113 
L 5375 331 
L 5894 331 
L 5894 0 
L 4300 0 
L 4300 331 
L 4800 331 
L 4800 2047 
Q 4800 2556 4650 2772 
Q 4500 2988 4153 2988 
Q 3769 2988 3567 2697 
Q 3366 2406 3366 1850 
L 3366 331 
L 3866 331 
L 3866 0 
L 2291 0 
L 2291 331 
L 2791 331 
L 2791 2069 
Q 2791 2566 2641 2777 
Q 2491 2988 2144 2988 
Q 1759 2988 1557 2697 
Q 1356 2406 1356 1850 
L 1356 331 
L 1856 331 
L 1856 0 
L 263 0 
L 263 331 
L 781 331 
L 781 2994 
L 231 2994 
L 231 3322 
L 1356 3322 
L 1356 2731 
Q 1516 3063 1762 3238 
Q 2009 3413 2322 3413 
Q 2709 3413 2968 3220 
Q 3228 3028 3316 2675 
z
" transform="scale(0.015625)"/>
       <path id="DejaVuSerif-70" d="M 1313 1825 
L 1313 1497 
Q 1313 897 1542 583 
Q 1772 269 2209 269 
Q 2650 269 2876 622 
Q 3103 975 3103 1663 
Q 3103 2353 2876 2703 
Q 2650 3053 2209 3053 
Q 1772 3053 1542 2737 
Q 1313 2422 1313 1825 
z
M 738 2988 
L 184 2988 
L 184 3322 
L 1313 3322 
L 1313 2803 
Q 1481 3116 1742 3264 
Q 2003 3413 2388 3413 
Q 3000 3413 3387 2928 
Q 3775 2444 3775 1663 
Q 3775 881 3387 395 
Q 3000 -91 2388 -91 
Q 2003 -91 1742 57 
Q 1481 206 1313 519 
L 1313 -997 
L 1856 -997 
L 1856 -1331 
L 184 -1331 
L 184 -997 
L 738 -997 
L 738 2988 
z
" transform="scale(0.015625)"/>
       <path id="DejaVuSerif-72" d="M 3059 3328 
L 3059 2497 
L 2728 2497 
Q 2713 2744 2591 2866 
Q 2469 2988 2234 2988 
Q 1809 2988 1582 2694 
Q 1356 2400 1356 1850 
L 1356 331 
L 2022 331 
L 2022 0 
L 263 0 
L 263 331 
L 781 331 
L 781 2994 
L 231 2994 
L 231 3322 
L 1356 3322 
L 1356 2731 
Q 1525 3078 1790 3245 
Q 2056 3413 2438 3413 
Q 2578 3413 2733 3391 
Q 2888 3369 3059 3328 
z
" transform="scale(0.015625)"/>
       <path id="DejaVuSerif-65" d="M 3469 1600 
L 991 1600 
L 991 1575 
Q 991 903 1244 561 
Q 1497 219 1991 219 
Q 2369 219 2611 417 
Q 2853 616 2950 1006 
L 3413 1006 
Q 3275 459 2904 184 
Q 2534 -91 1931 -91 
Q 1203 -91 761 389 
Q 319 869 319 1663 
Q 319 2450 753 2931 
Q 1188 3413 1894 3413 
Q 2647 3413 3050 2948 
Q 3453 2484 3469 1600 
z
M 2791 1931 
Q 2772 2513 2545 2808 
Q 2319 3103 1894 3103 
Q 1497 3103 1269 2806 
Q 1041 2509 991 1931 
L 2791 1931 
z
" transform="scale(0.015625)"/>
       <path id="DejaVuSerif-73" d="M 359 184 
L 359 959 
L 691 959 
Q 703 588 923 403 
Q 1144 219 1575 219 
Q 1963 219 2166 364 
Q 2369 509 2369 788 
Q 2369 1006 2220 1140 
Q 2072 1275 1594 1428 
L 1178 1569 
Q 750 1706 558 1912 
Q 366 2119 366 2438 
Q 366 2894 700 3153 
Q 1034 3413 1625 3413 
Q 1888 3413 2178 3344 
Q 2469 3275 2778 3144 
L 2778 2419 
L 2447 2419 
Q 2434 2741 2221 2922 
Q 2009 3103 1644 3103 
Q 1281 3103 1095 2975 
Q 909 2847 909 2591 
Q 909 2381 1050 2254 
Q 1191 2128 1613 1997 
L 2069 1856 
Q 2541 1709 2748 1489 
Q 2956 1269 2956 922 
Q 2956 450 2595 179 
Q 2234 -91 1600 -91 
Q 1278 -91 972 -22 
Q 666 47 359 184 
z
" transform="scale(0.015625)"/>
       <path id="DejaVuSerif-69" d="M 622 4353 
Q 622 4497 726 4603 
Q 831 4709 978 4709 
Q 1122 4709 1226 4603 
Q 1331 4497 1331 4353 
Q 1331 4206 1228 4103 
Q 1125 4000 978 4000 
Q 831 4000 726 4103 
Q 622 4206 622 4353 
z
M 1356 331 
L 1900 331 
L 1900 0 
L 231 0 
L 231 331 
L 781 331 
L 781 2988 
L 231 2988 
L 231 3322 
L 1356 3322 
L 1356 331 
z
" transform="scale(0.015625)"/>
       <path id="DejaVuSerif-6e" d="M 263 0 
L 263 331 
L 781 331 
L 781 2988 
L 231 2988 
L 231 3322 
L 1356 3322 
L 1356 2731 
Q 1516 3069 1770 3241 
Q 2025 3413 2363 3413 
Q 2913 3413 3172 3097 
Q 3431 2781 3431 2113 
L 3431 331 
L 3944 331 
L 3944 0 
L 2356 0 
L 2356 331 
L 2853 331 
L 2853 1931 
Q 2853 2541 2703 2767 
Q 2553 2994 2175 2994 
Q 1775 2994 1565 2701 
Q 1356 2409 1356 1850 
L 1356 331 
L 1856 331 
L 1856 0 
L 263 0 
z
" transform="scale(0.015625)"/>
       <path id="DejaVuSerif-20" transform="scale(0.015625)"/>
       <path id="DejaVuSerif-61" d="M 2547 1044 
L 2547 1747 
L 1806 1747 
Q 1378 1747 1168 1562 
Q 959 1378 959 997 
Q 959 650 1171 447 
Q 1384 244 1747 244 
Q 2106 244 2326 466 
Q 2547 688 2547 1044 
z
M 3122 2075 
L 3122 331 
L 3634 331 
L 3634 0 
L 2547 0 
L 2547 359 
Q 2356 128 2106 18 
Q 1856 -91 1522 -91 
Q 969 -91 644 203 
Q 319 497 319 997 
Q 319 1513 691 1797 
Q 1063 2081 1741 2081 
L 2547 2081 
L 2547 2309 
Q 2547 2688 2317 2895 
Q 2088 3103 1672 3103 
Q 1328 3103 1125 2947 
Q 922 2791 872 2484 
L 575 2484 
L 575 3156 
Q 875 3284 1158 3348 
Q 1441 3413 1709 3413 
Q 2400 3413 2761 3070 
Q 3122 2728 3122 2075 
z
" transform="scale(0.015625)"/>
       <path id="DejaVuSerif-74" d="M 691 2988 
L 184 2988 
L 184 3322 
L 691 3322 
L 691 4353 
L 1269 4353 
L 1269 3322 
L 2350 3322 
L 2350 2988 
L 1269 2988 
L 1269 878 
Q 1269 456 1350 337 
Q 1431 219 1650 219 
Q 1875 219 1978 351 
Q 2081 484 2088 781 
L 2522 781 
Q 2497 328 2275 118 
Q 2053 -91 1600 -91 
Q 1103 -91 897 129 
Q 691 350 691 878 
L 691 2988 
z
" transform="scale(0.015625)"/>
       <path id="DejaVuSerif-28" d="M 2041 -997 
Q 1281 -656 893 83 
Q 506 822 506 1931 
Q 506 3044 893 3783 
Q 1281 4522 2041 4863 
L 2041 4556 
Q 1559 4225 1350 3623 
Q 1141 3022 1141 1931 
Q 1141 844 1350 242 
Q 1559 -359 2041 -691 
L 2041 -997 
z
" transform="scale(0.015625)"/>
       <path id="DejaVuSerif-25" d="M 1434 4459 
Q 1159 4459 1004 4200 
Q 850 3941 850 3475 
Q 850 3016 1008 2753 
Q 1166 2491 1434 2491 
Q 1700 2491 1854 2752 
Q 2009 3013 2009 3475 
Q 2009 3938 1854 4198 
Q 1700 4459 1434 4459 
z
M 4653 2169 
Q 4381 2169 4226 1906 
Q 4072 1644 4072 1178 
Q 4072 719 4228 458 
Q 4384 197 4653 197 
Q 4922 197 5075 458 
Q 5228 719 5228 1178 
Q 5228 1641 5073 1905 
Q 4919 2169 4653 2169 
z
M 4653 2450 
Q 5147 2450 5437 2106 
Q 5728 1763 5728 1178 
Q 5728 594 5436 251 
Q 5144 -91 4653 -91 
Q 4153 -91 3862 251 
Q 3572 594 3572 1178 
Q 3572 1766 3864 2108 
Q 4156 2450 4653 2450 
z
M 4263 4750 
L 4738 4750 
L 1819 -91 
L 1344 -91 
L 4263 4750 
z
M 1428 4750 
Q 1922 4750 2215 4408 
Q 2509 4066 2509 3481 
Q 2509 2891 2217 2550 
Q 1925 2209 1428 2209 
Q 931 2209 642 2551 
Q 353 2894 353 3481 
Q 353 4063 643 4406 
Q 934 4750 1428 4750 
z
" transform="scale(0.015625)"/>
       <path id="DejaVuSerif-29" d="M 453 -997 
L 453 -691 
Q 934 -359 1145 242 
Q 1356 844 1356 1931 
Q 1356 3022 1145 3623 
Q 934 4225 453 4556 
L 453 4863 
Q 1216 4522 1603 3783 
Q 1991 3044 1991 1931 
Q 1991 822 1603 83 
Q 1216 -656 453 -997 
z
" transform="scale(0.015625)"/>
      </defs>
      <use xlink:href="#DejaVuSerif-43"/>
      <use xlink:href="#DejaVuSerif-6f" transform="translate(76.513672 0)"/>
      <use xlink:href="#DejaVuSerif-6d" transform="translate(136.71875 0)"/>
      <use xlink:href="#DejaVuSerif-70" transform="translate(231.542969 0)"/>
      <use xlink:href="#DejaVuSerif-72" transform="translate(295.556641 0)"/>
      <use xlink:href="#DejaVuSerif-65" transform="translate(343.359375 0)"/>
      <use xlink:href="#DejaVuSerif-73" transform="translate(402.539062 0)"/>
      <use xlink:href="#DejaVuSerif-73" transform="translate(453.857422 0)"/>
      <use xlink:href="#DejaVuSerif-69" transform="translate(505.175781 0)"/>
      <use xlink:href="#DejaVuSerif-6f" transform="translate(537.158203 0)"/>
      <use xlink:href="#DejaVuSerif-6e" transform="translate(597.363281 0)"/>
      <use xlink:href="#DejaVuSerif-20" transform="translate(661.767578 0)"/>
      <use xlink:href="#DejaVuSerif-72" transform="translate(693.554688 0)"/>
      <use xlink:href="#DejaVuSerif-61" transform="translate(741.357422 0)"/>
      <use xlink:href="#DejaVuSerif-74" transform="translate(800.976562 0)"/>
      <use xlink:href="#DejaVuSerif-69" transform="translate(841.162109 0)"/>
      <use xlink:href="#DejaVuSerif-6f" transform="translate(873.144531 0)"/>
      <use xlink:href="#DejaVuSerif-20" transform="translate(933.349609 0)"/>
      <use xlink:href="#DejaVuSerif-28" transform="translate(965.136719 0)"/>
      <use xlink:href="#DejaVuSerif-25" transform="translate(1004.150391 0)"/>
      <use xlink:href="#DejaVuSerif-29" transform="translate(1099.169922 0)"/>
     </g>
    </g>
   </g>
   <g id="matplotlib.axis_2">
    <g id="ytick_1">
     <g id="line2d_13">
      <path d="M 55.249375 355.710047 
L 705.617321 355.710047 
" clip-path="url(#p4d26aca4d3)" style="fill: none; stroke: #dddddd; stroke-linecap: square"/>
     </g>
     <g id="line2d_14">
      <defs>
       <path id="mf0b9547972" d="M 0 0 
L -3.5 0 
" style="stroke: #000000; stroke-width: 0.8"/>
      </defs>
      <g>
       <use xlink:href="#mf0b9547972" x="55.249375" y="355.710047" style="stroke: #000000; stroke-width: 0.8"/>
      </g>
     </g>
     <g id="text_8">
      <!-- $\mathdefault{10^{-1}}$ -->
      <g transform="translate(24.749375 359.509266) scale(0.1 -0.1)">
       <defs>
        <path id="DejaVuSans-31" d="M 794 531 
L 1825 531 
L 1825 4091 
L 703 3866 
L 703 4441 
L 1819 4666 
L 2450 4666 
L 2450 531 
L 3481 531 
L 3481 0 
L 794 0 
L 794 531 
z
" transform="scale(0.015625)"/>
        <path id="DejaVuSans-2212" d="M 678 2272 
L 4684 2272 
L 4684 1741 
L 678 1741 
L 678 2272 
z
" transform="scale(0.015625)"/>
       </defs>
       <use xlink:href="#DejaVuSans-31" transform="translate(0 0.684375)"/>
       <use xlink:href="#DejaVuSans-30" transform="translate(63.623047 0.684375)"/>
       <use xlink:href="#DejaVuSans-2212" transform="translate(128.203125 38.965625) scale(0.7)"/>
       <use xlink:href="#DejaVuSans-31" transform="translate(186.855469 38.965625) scale(0.7)"/>
      </g>
     </g>
    </g>
    <g id="ytick_2">
     <g id="line2d_15">
      <path d="M 55.249375 265.617362 
L 705.617321 265.617362 
" clip-path="url(#p4d26aca4d3)" style="fill: none; stroke: #dddddd; stroke-linecap: square"/>
     </g>
     <g id="line2d_16">
      <g>
       <use xlink:href="#mf0b9547972" x="55.249375" y="265.617362" style="stroke: #000000; stroke-width: 0.8"/>
      </g>
     </g>
     <g id="text_9">
      <!-- $\mathdefault{10^{0}}$ -->
      <g transform="translate(30.649375 269.416581) scale(0.1 -0.1)">
       <use xlink:href="#DejaVuSans-31" transform="translate(0 0.765625)"/>
       <use xlink:href="#DejaVuSans-30" transform="translate(63.623047 0.765625)"/>
       <use xlink:href="#DejaVuSans-30" transform="translate(128.203125 39.046875) scale(0.7)"/>
      </g>
     </g>
    </g>
    <g id="ytick_3">
     <g id="line2d_17">
      <path d="M 55.249375 175.524678 
L 705.617321 175.524678 
" clip-path="url(#p4d26aca4d3)" style="fill: none; stroke: #dddddd; stroke-linecap: square"/>
     </g>
     <g id="line2d_18">
      <g>
       <use xlink:href="#mf0b9547972" x="55.249375" y="175.524678" style="stroke: #000000; stroke-width: 0.8"/>
      </g>
     </g>
     <g id="text_10">
      <!-- $\mathdefault{10^{1}}$ -->
      <g transform="translate(30.649375 179.323896) scale(0.1 -0.1)">
       <use xlink:href="#DejaVuSans-31" transform="translate(0 0.684375)"/>
       <use xlink:href="#DejaVuSans-30" transform="translate(63.623047 0.684375)"/>
       <use xlink:href="#DejaVuSans-31" transform="translate(128.203125 38.965625) scale(0.7)"/>
      </g>
     </g>
    </g>
    <g id="ytick_4">
     <g id="line2d_19">
      <path d="M 55.249375 85.431993 
L 705.617321 85.431993 
" clip-path="url(#p4d26aca4d3)" style="fill: none; stroke: #dddddd; stroke-linecap: square"/>
     </g>
     <g id="line2d_20">
      <g>
       <use xlink:href="#mf0b9547972" x="55.249375" y="85.431993" style="stroke: #000000; stroke-width: 0.8"/>
      </g>
     </g>
     <g id="text_11">
      <!-- $\mathdefault{10^{2}}$ -->
      <g transform="translate(30.649375 89.231211) scale(0.1 -0.1)">
       <use xlink:href="#DejaVuSans-31" transform="translate(0 0.765625)"/>
       <use xlink:href="#DejaVuSans-30" transform="translate(63.623047 0.765625)"/>
       <use xlink:href="#DejaVuSans-32" transform="translate(128.203125 39.046875) scale(0.7)"/>
      </g>
     </g>
    </g>
    <g id="ytick_5">
     <g id="line2d_21">
      <defs>
       <path id="m32ef6f12bd" d="M 0 0 
L -2 0 
" style="stroke: #000000; stroke-width: 0.6"/>
      </defs>
      <g>
       <use xlink:href="#m32ef6f12bd" x="55.249375" y="382.830648" style="stroke: #000000; stroke-width: 0.6"/>
      </g>
     </g>
    </g>
    <g id="ytick_6">
     <g id="line2d_22">
      <g>
       <use xlink:href="#m32ef6f12bd" x="55.249375" y="375.696997" style="stroke: #000000; stroke-width: 0.6"/>
      </g>
     </g>
    </g>
    <g id="ytick_7">
     <g id="line2d_23">
      <g>
       <use xlink:href="#m32ef6f12bd" x="55.249375" y="369.665581" style="stroke: #000000; stroke-width: 0.6"/>
      </g>
     </g>
    </g>
    <g id="ytick_8">
     <g id="line2d_24">
      <g>
       <use xlink:href="#m32ef6f12bd" x="55.249375" y="364.440931" style="stroke: #000000; stroke-width: 0.6"/>
      </g>
     </g>
    </g>
    <g id="ytick_9">
     <g id="line2d_25">
      <g>
       <use xlink:href="#m32ef6f12bd" x="55.249375" y="359.832462" style="stroke: #000000; stroke-width: 0.6"/>
      </g>
     </g>
    </g>
    <g id="ytick_10">
     <g id="line2d_26">
      <g>
       <use xlink:href="#m32ef6f12bd" x="55.249375" y="328.589447" style="stroke: #000000; stroke-width: 0.6"/>
      </g>
     </g>
    </g>
    <g id="ytick_11">
     <g id="line2d_27">
      <g>
       <use xlink:href="#m32ef6f12bd" x="55.249375" y="312.724912" style="stroke: #000000; stroke-width: 0.6"/>
      </g>
     </g>
    </g>
    <g id="ytick_12">
     <g id="line2d_28">
      <g>
       <use xlink:href="#m32ef6f12bd" x="55.249375" y="301.468846" style="stroke: #000000; stroke-width: 0.6"/>
      </g>
     </g>
    </g>
    <g id="ytick_13">
     <g id="line2d_29">
      <g>
       <use xlink:href="#m32ef6f12bd" x="55.249375" y="292.737963" style="stroke: #000000; stroke-width: 0.6"/>
      </g>
     </g>
    </g>
    <g id="ytick_14">
     <g id="line2d_30">
      <g>
       <use xlink:href="#m32ef6f12bd" x="55.249375" y="285.604312" style="stroke: #000000; stroke-width: 0.6"/>
      </g>
     </g>
    </g>
    <g id="ytick_15">
     <g id="line2d_31">
      <g>
       <use xlink:href="#m32ef6f12bd" x="55.249375" y="279.572896" style="stroke: #000000; stroke-width: 0.6"/>
      </g>
     </g>
    </g>
    <g id="ytick_16">
     <g id="line2d_32">
      <g>
       <use xlink:href="#m32ef6f12bd" x="55.249375" y="274.348246" style="stroke: #000000; stroke-width: 0.6"/>
      </g>
     </g>
    </g>
    <g id="ytick_17">
     <g id="line2d_33">
      <g>
       <use xlink:href="#m32ef6f12bd" x="55.249375" y="269.739778" style="stroke: #000000; stroke-width: 0.6"/>
      </g>
     </g>
    </g>
    <g id="ytick_18">
     <g id="line2d_34">
      <g>
       <use xlink:href="#m32ef6f12bd" x="55.249375" y="238.496762" style="stroke: #000000; stroke-width: 0.6"/>
      </g>
     </g>
    </g>
    <g id="ytick_19">
     <g id="line2d_35">
      <g>
       <use xlink:href="#m32ef6f12bd" x="55.249375" y="222.632228" style="stroke: #000000; stroke-width: 0.6"/>
      </g>
     </g>
    </g>
    <g id="ytick_20">
     <g id="line2d_36">
      <g>
       <use xlink:href="#m32ef6f12bd" x="55.249375" y="211.376161" style="stroke: #000000; stroke-width: 0.6"/>
      </g>
     </g>
    </g>
    <g id="ytick_21">
     <g id="line2d_37">
      <g>
       <use xlink:href="#m32ef6f12bd" x="55.249375" y="202.645278" style="stroke: #000000; stroke-width: 0.6"/>
      </g>
     </g>
    </g>
    <g id="ytick_22">
     <g id="line2d_38">
      <g>
       <use xlink:href="#m32ef6f12bd" x="55.249375" y="195.511627" style="stroke: #000000; stroke-width: 0.6"/>
      </g>
     </g>
    </g>
    <g id="ytick_23">
     <g id="line2d_39">
      <g>
       <use xlink:href="#m32ef6f12bd" x="55.249375" y="189.480211" style="stroke: #000000; stroke-width: 0.6"/>
      </g>
     </g>
    </g>
    <g id="ytick_24">
     <g id="line2d_40">
      <g>
       <use xlink:href="#m32ef6f12bd" x="55.249375" y="184.255561" style="stroke: #000000; stroke-width: 0.6"/>
      </g>
     </g>
    </g>
    <g id="ytick_25">
     <g id="line2d_41">
      <g>
       <use xlink:href="#m32ef6f12bd" x="55.249375" y="179.647093" style="stroke: #000000; stroke-width: 0.6"/>
      </g>
     </g>
    </g>
    <g id="ytick_26">
     <g id="line2d_42">
      <g>
       <use xlink:href="#m32ef6f12bd" x="55.249375" y="148.404077" style="stroke: #000000; stroke-width: 0.6"/>
      </g>
     </g>
    </g>
    <g id="ytick_27">
     <g id="line2d_43">
      <g>
       <use xlink:href="#m32ef6f12bd" x="55.249375" y="132.539543" style="stroke: #000000; stroke-width: 0.6"/>
      </g>
     </g>
    </g>
    <g id="ytick_28">
     <g id="line2d_44">
      <g>
       <use xlink:href="#m32ef6f12bd" x="55.249375" y="121.283477" style="stroke: #000000; stroke-width: 0.6"/>
      </g>
     </g>
    </g>
    <g id="ytick_29">
     <g id="line2d_45">
      <g>
       <use xlink:href="#m32ef6f12bd" x="55.249375" y="112.552593" style="stroke: #000000; stroke-width: 0.6"/>
      </g>
     </g>
    </g>
    <g id="ytick_30">
     <g id="line2d_46">
      <g>
       <use xlink:href="#m32ef6f12bd" x="55.249375" y="105.418942" style="stroke: #000000; stroke-width: 0.6"/>
      </g>
     </g>
    </g>
    <g id="ytick_31">
     <g id="line2d_47">
      <g>
       <use xlink:href="#m32ef6f12bd" x="55.249375" y="99.387526" style="stroke: #000000; stroke-width: 0.6"/>
      </g>
     </g>
    </g>
    <g id="ytick_32">
     <g id="line2d_48">
      <g>
       <use xlink:href="#m32ef6f12bd" x="55.249375" y="94.162876" style="stroke: #000000; stroke-width: 0.6"/>
      </g>
     </g>
    </g>
    <g id="ytick_33">
     <g id="line2d_49">
      <g>
       <use xlink:href="#m32ef6f12bd" x="55.249375" y="89.554408" style="stroke: #000000; stroke-width: 0.6"/>
      </g>
     </g>
    </g>
    <g id="ytick_34">
     <g id="line2d_50">
      <g>
       <use xlink:href="#m32ef6f12bd" x="55.249375" y="58.311392" style="stroke: #000000; stroke-width: 0.6"/>
      </g>
     </g>
    </g>
    <g id="ytick_35">
     <g id="line2d_51">
      <g>
       <use xlink:href="#m32ef6f12bd" x="55.249375" y="42.446858" style="stroke: #000000; stroke-width: 0.6"/>
      </g>
     </g>
    </g>
    <g id="ytick_36">
     <g id="line2d_52">
      <g>
       <use xlink:href="#m32ef6f12bd" x="55.249375" y="31.190792" style="stroke: #000000; stroke-width: 0.6"/>
      </g>
     </g>
    </g>
    <g id="ytick_37">
     <g id="line2d_53">
      <g>
       <use xlink:href="#m32ef6f12bd" x="55.249375" y="22.459908" style="stroke: #000000; stroke-width: 0.6"/>
      </g>
     </g>
    </g>
    <g id="ytick_38">
     <g id="line2d_54">
      <g>
       <use xlink:href="#m32ef6f12bd" x="55.249375" y="15.326257" style="stroke: #000000; stroke-width: 0.6"/>
      </g>
     </g>
    </g>
    <g id="ytick_39">
     <g id="line2d_55">
      <g>
       <use xlink:href="#m32ef6f12bd" x="55.249375" y="9.294841" style="stroke: #000000; stroke-width: 0.6"/>
      </g>
     </g>
    </g>
    <g id="text_12">
     <!-- Random access speed (MB/s) -->
     <g transform="translate(17.837812 299.312187) rotate(-90) scale(0.14 -0.14)">
      <defs>
       <path id="DejaVuSerif-52" d="M 3066 2316 
Q 3284 2256 3442 2114 
Q 3600 1972 3725 1716 
L 4403 331 
L 4972 331 
L 4972 0 
L 3872 0 
L 3144 1484 
Q 2934 1916 2759 2042 
Q 2584 2169 2278 2169 
L 1581 2169 
L 1581 331 
L 2241 331 
L 2241 0 
L 353 0 
L 353 331 
L 947 331 
L 947 4331 
L 353 4331 
L 353 4666 
L 2719 4666 
Q 3400 4666 3770 4341 
Q 4141 4016 4141 3419 
Q 4141 2938 3870 2661 
Q 3600 2384 3066 2316 
z
M 1581 2503 
L 2503 2503 
Q 2975 2503 3200 2726 
Q 3425 2950 3425 3419 
Q 3425 3888 3200 4109 
Q 2975 4331 2503 4331 
L 1581 4331 
L 1581 2503 
z
" transform="scale(0.015625)"/>
       <path id="DejaVuSerif-64" d="M 3359 331 
L 3909 331 
L 3909 0 
L 2784 0 
L 2784 519 
Q 2616 206 2355 57 
Q 2094 -91 1709 -91 
Q 1097 -91 708 395 
Q 319 881 319 1663 
Q 319 2444 706 2928 
Q 1094 3413 1709 3413 
Q 2094 3413 2355 3264 
Q 2616 3116 2784 2803 
L 2784 4531 
L 2241 4531 
L 2241 4863 
L 3359 4863 
L 3359 331 
z
M 2784 1497 
L 2784 1825 
Q 2784 2422 2554 2737 
Q 2325 3053 1888 3053 
Q 1444 3053 1217 2703 
Q 991 2353 991 1663 
Q 991 975 1217 622 
Q 1444 269 1888 269 
Q 2325 269 2554 583 
Q 2784 897 2784 1497 
z
" transform="scale(0.015625)"/>
       <path id="DejaVuSerif-63" d="M 3291 997 
Q 3169 466 2822 187 
Q 2475 -91 1925 -91 
Q 1200 -91 759 389 
Q 319 869 319 1663 
Q 319 2459 759 2936 
Q 1200 3413 1925 3413 
Q 2241 3413 2553 3339 
Q 2866 3266 3181 3116 
L 3181 2266 
L 2847 2266 
Q 2781 2703 2561 2903 
Q 2341 3103 1931 3103 
Q 1466 3103 1228 2742 
Q 991 2381 991 1663 
Q 991 944 1227 581 
Q 1463 219 1931 219 
Q 2303 219 2525 412 
Q 2747 606 2828 997 
L 3291 997 
z
" transform="scale(0.015625)"/>
       <path id="DejaVuSerif-4d" d="M 353 0 
L 353 331 
L 947 331 
L 947 4331 
L 319 4331 
L 319 4666 
L 1678 4666 
L 3316 1344 
L 4953 4666 
L 6228 4666 
L 6228 4331 
L 5606 4331 
L 5606 331 
L 6203 331 
L 6203 0 
L 4378 0 
L 4378 331 
L 4972 331 
L 4972 3938 
L 3372 684 
L 2931 684 
L 1331 3938 
L 1331 331 
L 1925 331 
L 1925 0 
L 353 0 
z
" transform="scale(0.015625)"/>
       <path id="DejaVuSerif-42" d="M 1581 331 
L 2516 331 
Q 3078 331 3337 575 
Q 3597 819 3597 1350 
Q 3597 1878 3339 2120 
Q 3081 2363 2516 2363 
L 1581 2363 
L 1581 331 
z
M 1581 2694 
L 2375 2694 
Q 2888 2694 3123 2891 
Q 3359 3088 3359 3513 
Q 3359 3941 3123 4136 
Q 2888 4331 2375 4331 
L 1581 4331 
L 1581 2694 
z
M 353 0 
L 353 331 
L 947 331 
L 947 4331 
L 353 4331 
L 353 4666 
L 2656 4666 
Q 3363 4666 3720 4377 
Q 4078 4088 4078 3513 
Q 4078 3097 3829 2850 
Q 3581 2603 3103 2547 
Q 3697 2472 4005 2167 
Q 4313 1863 4313 1350 
Q 4313 656 3875 328 
Q 3438 0 2509 0 
L 353 0 
z
" transform="scale(0.015625)"/>
       <path id="DejaVuSerif-2f" d="M 1656 4666 
L 2156 4666 
L 500 -594 
L 0 -594 
L 1656 4666 
z
" transform="scale(0.015625)"/>
      </defs>
      <use xlink:href="#DejaVuSerif-52"/>
      <use xlink:href="#DejaVuSerif-61" transform="translate(77.542969 0)"/>
      <use xlink:href="#DejaVuSerif-6e" transform="translate(137.162109 0)"/>
      <use xlink:href="#DejaVuSerif-64" transform="translate(201.566406 0)"/>
      <use xlink:href="#DejaVuSerif-6f" transform="translate(265.580078 0)"/>
      <use xlink:href="#DejaVuSerif-6d" transform="translate(325.785156 0)"/>
      <use xlink:href="#DejaVuSerif-20" transform="translate(420.609375 0)"/>
      <use xlink:href="#DejaVuSerif-61" transform="translate(452.396484 0)"/>
      <use xlink:href="#DejaVuSerif-63" transform="translate(512.015625 0)"/>
      <use xlink:href="#DejaVuSerif-63" transform="translate(568.021484 0)"/>
      <use xlink:href="#DejaVuSerif-65" transform="translate(624.027344 0)"/>
      <use xlink:href="#DejaVuSerif-73" transform="translate(683.207031 0)"/>
      <use xlink:href="#DejaVuSerif-73" transform="translate(734.525391 0)"/>
      <use xlink:href="#DejaVuSerif-20" transform="translate(785.84375 0)"/>
      <use xlink:href="#DejaVuSerif-73" transform="translate(817.630859 0)"/>
      <use xlink:href="#DejaVuSerif-70" transform="translate(868.949219 0)"/>
      <use xlink:href="#DejaVuSerif-65" transform="translate(932.962891 0)"/>
      <use xlink:href="#DejaVuSerif-65" transform="translate(992.142578 0)"/>
      <use xlink:href="#DejaVuSerif-64" transform="translate(1051.322266 0)"/>
      <use xlink:href="#DejaVuSerif-20" transform="translate(1115.335938 0)"/>
      <use xlink:href="#DejaVuSerif-28" transform="translate(1147.123047 0)"/>
      <use xlink:href="#DejaVuSerif-4d" transform="translate(1186.136719 0)"/>
      <use xlink:href="#DejaVuSerif-42" transform="translate(1288.529297 0)"/>
      <use xlink:href="#DejaVuSerif-2f" transform="translate(1362.015625 0)"/>
      <use xlink:href="#DejaVuSerif-73" transform="translate(1395.707031 0)"/>
      <use xlink:href="#DejaVuSerif-29" transform="translate(1447.025391 0)"/>
     </g>
    </g>
   </g>
   <g id="patch_3">
    <path d="M 55.249375 383.38 
L 55.249375 7.2 
" style="fill: none; stroke: #000000; stroke-width: 1.5; stroke-linejoin: miter; stroke-linecap: square"/>
   </g>
   <g id="patch_4">
    <path d="M 705.617321 383.38 
L 705.617321 7.2 
" style="fill: none; stroke: #000000; stroke-width: 1.5; stroke-linejoin: miter; stroke-linecap: square"/>
   </g>
   <g id="patch_5">
    <path d="M 55.249375 383.38 
L 705.617321 383.38 
" style="fill: none; stroke: #000000; stroke-width: 1.5; stroke-linejoin: miter; stroke-linecap: square"/>
   </g>
   <g id="patch_6">
    <path d="M 55.249375 7.2 
L 705.617321 7.2 
" style="fill: none; stroke: #000000; stroke-width: 1.5; stroke-linejoin: miter; stroke-linecap: square"/>
   </g>
   <g id="text_13">
    <g id="patch_7">
     <path d="M 328.814789 209.410779 
L 358.175954 238.771944 
L 372.587895 224.360003 
L 343.22673 194.998838 
L 346.829715 191.395853 
L 325.211804 191.395853 
L 325.211804 213.013765 
L 328.814789 209.410779 
z
" style="fill: #c0c0c0; opacity: 0.4"/>
    </g>
    <!-- Better -->
    <g style="fill: #696969; opacity: 0.9" transform="translate(330.669169 201.926267) rotate(-315) scale(0.13 -0.13)">
     <use xlink:href="#DejaVuSerif-42"/>
     <use xlink:href="#DejaVuSerif-65" transform="translate(73.486328 0)"/>
     <use xlink:href="#DejaVuSerif-74" transform="translate(132.666016 0)"/>
     <use xlink:href="#DejaVuSerif-74" transform="translate(172.851562 0)"/>
     <use xlink:href="#DejaVuSerif-65" transform="translate(213.037109 0)"/>
     <use xlink:href="#DejaVuSerif-72" transform="translate(272.216797 0)"/>
    </g>
   </g>
   <g id="patch_8">
    <path d="M 109.786348 99.839064 
L 109.763848 96.062654 
L 109.696436 92.301451 
L 109.584384 88.570599 
L 109.428144 84.885121 
L 109.228345 81.259858 
L 108.985791 77.709406 
L 108.701459 74.248063 
L 108.376493 70.889765 
L 108.012203 67.648036 
L 107.610055 64.535929 
L 107.171669 61.565976 
L 106.698809 58.750134 
L 106.19338 56.099743 
L 105.657417 53.625475 
L 105.093078 51.337293 
L 104.502636 49.24441 
L 103.888467 47.355255 
L 103.253046 45.677432 
L 102.59893 44.2177 
L 101.928754 42.981935 
L 101.245215 41.975114 
L 100.551068 41.201291 
L 99.849105 40.663581 
L 99.142155 40.36415 
L 98.433064 40.304203 
L 97.724686 40.483983 
L 97.019875 40.902764 
L 96.321469 41.558861 
L 95.632279 42.449632 
L 94.95508 43.571489 
L 94.292601 44.919917 
L 93.647507 46.489484 
L 93.022398 48.273872 
L 92.419789 50.265894 
L 91.842107 52.45753 
L 91.291679 54.839954 
L 90.770721 57.403574 
L 90.28133 60.138067 
L 89.825478 63.032422 
L 89.404999 66.074984 
L 89.021587 69.253502 
L 88.676786 72.555178 
L 88.371983 75.966716 
L 88.108407 79.474379 
L 87.887119 83.064044 
L 87.70901 86.721256 
L 87.574797 90.431289 
L 87.48502 94.179203 
L 87.440041 97.949908 
L 87.440041 101.72822 
L 87.48502 105.498925 
L 87.574797 109.246839 
L 87.70901 112.956872 
L 87.887119 116.614084 
L 88.108407 120.203749 
L 88.371983 123.711412 
L 88.676786 127.12295 
L 89.021587 130.424626 
L 89.404999 133.603144 
L 89.825478 136.645706 
L 90.28133 139.540061 
L 90.770721 142.274553 
L 91.291679 144.838174 
L 91.842107 147.220598 
L 92.419789 149.412234 
L 93.022398 151.404256 
L 93.647507 153.188644 
L 94.292601 154.758211 
L 94.95508 156.106638 
L 95.632279 157.228496 
L 96.321469 158.119267 
L 97.019875 158.775364 
L 97.724686 159.194145 
L 98.433064 159.373924 
L 99.142155 159.313978 
L 99.849105 159.014547 
L 100.551068 158.476837 
L 101.245215 157.703014 
L 101.928754 156.696192 
L 102.59893 155.460428 
L 103.253046 154.000695 
L 103.888467 152.322873 
L 104.502636 150.433717 
L 105.093078 148.340835 
L 105.657417 146.052652 
L 106.19338 143.578384 
L 106.698809 140.927994 
L 107.171669 138.112152 
L 107.610055 135.142198 
L 108.012203 132.030092 
L 108.376493 128.788363 
L 108.701459 125.430065 
L 108.985791 121.968722 
L 109.228345 118.41827 
L 109.428144 114.793007 
L 109.584384 111.107529 
L 109.696436 107.376677 
L 109.763848 103.615473 
L 109.786348 99.839064 
z
" clip-path="url(#p4d26aca4d3)" style="fill: #add8e6; opacity: 0.4; stroke: #add8e6; stroke-linejoin: miter"/>
   </g>
   <g id="line2d_56">
    <path d="M 109.786348 99.839064 
L 109.763848 96.062654 
L 109.696436 92.301451 
L 109.584384 88.570599 
L 109.428144 84.885121 
L 109.228345 81.259858 
L 108.985791 77.709406 
L 108.701459 74.248063 
L 108.376493 70.889765 
L 108.012203 67.648036 
L 107.610055 64.535929 
L 107.171669 61.565976 
L 106.698809 58.750134 
L 106.19338 56.099743 
L 105.657417 53.625475 
L 105.093078 51.337293 
L 104.502636 49.24441 
L 103.888467 47.355255 
L 103.253046 45.677432 
L 102.59893 44.2177 
L 101.928754 42.981935 
L 101.245215 41.975114 
L 100.551068 41.201291 
L 99.849105 40.663581 
L 99.142155 40.36415 
L 98.433064 40.304203 
L 97.724686 40.483983 
L 97.019875 40.902764 
L 96.321469 41.558861 
L 95.632279 42.449632 
L 94.95508 43.571489 
L 94.292601 44.919917 
L 93.647507 46.489484 
L 93.022398 48.273872 
L 92.419789 50.265894 
L 91.842107 52.45753 
L 91.291679 54.839954 
L 90.770721 57.403574 
L 90.28133 60.138067 
L 89.825478 63.032422 
L 89.404999 66.074984 
L 89.021587 69.253502 
L 88.676786 72.555178 
L 88.371983 75.966716 
L 88.108407 79.474379 
L 87.887119 83.064044 
L 87.70901 86.721256 
L 87.574797 90.431289 
L 87.48502 94.179203 
L 87.440041 97.949908 
L 87.440041 101.72822 
L 87.48502 105.498925 
L 87.574797 109.246839 
L 87.70901 112.956872 
L 87.887119 116.614084 
L 88.108407 120.203749 
L 88.371983 123.711412 
L 88.676786 127.12295 
L 89.021587 130.424626 
L 89.404999 133.603144 
L 89.825478 136.645706 
L 90.28133 139.540061 
L 90.770721 142.274553 
L 91.291679 144.838174 
L 91.842107 147.220598 
L 92.419789 149.412234 
L 93.022398 151.404256 
L 93.647507 153.188644 
L 94.292601 154.758211 
L 94.95508 156.106638 
L 95.632279 157.228496 
L 96.321469 158.119267 
L 97.019875 158.775364 
L 97.724686 159.194145 
L 98.433064 159.373924 
L 99.142155 159.313978 
L 99.849105 159.014547 
L 100.551068 158.476837 
L 101.245215 157.703014 
L 101.928754 156.696192 
L 102.59893 155.460428 
L 103.253046 154.000695 
L 103.888467 152.322873 
L 104.502636 150.433717 
L 105.093078 148.340835 
L 105.657417 146.052652 
L 106.19338 143.578384 
L 106.698809 140.927994 
L 107.171669 138.112152 
L 107.610055 135.142198 
L 108.012203 132.030092 
L 108.376493 128.788363 
L 108.701459 125.430065 
L 108.985791 121.968722 
L 109.228345 118.41827 
L 109.428144 114.793007 
L 109.584384 111.107529 
L 109.696436 107.376677 
L 109.763848 103.615473 
L 109.786348 99.839064 
" clip-path="url(#p4d26aca4d3)" style="fill: none; stroke-dasharray: 11.1,4.8; stroke-dashoffset: 0; stroke: #00008b; stroke-width: 3"/>
   </g>
   <g id="PathCollection_1">
    <path d="M 139.455049 171.092943 
L 146.163253 164.384739 
L 139.455049 157.676535 
L 132.746845 164.384739 
z
" clip-path="url(#p4d26aca4d3)" style="fill: #f8bbd0"/>
   </g>
   <g id="PathCollection_2">
    <path d="M 90.746125 110.260552 
L 94.397608 110.260552 
L 94.397608 106.609068 
L 98.049092 106.609068 
L 98.049092 102.957585 
L 94.397608 102.957585 
L 94.397608 99.306101 
L 90.746125 99.306101 
L 90.746125 102.957585 
L 87.094641 102.957585 
L 87.094641 106.609068 
L 90.746125 106.609068 
z
" clip-path="url(#p4d26aca4d3)" style="fill: #9467bd"/>
   </g>
   <g id="PathCollection_3">
    <path d="M 93.547101 142.530262 
L 97.198585 142.530262 
L 97.198585 138.878778 
L 100.850069 138.878778 
L 100.850069 135.227294 
L 97.198585 135.227294 
L 97.198585 131.57581 
L 93.547101 131.57581 
L 93.547101 135.227294 
L 89.895618 135.227294 
L 89.895618 138.878778 
L 93.547101 138.878778 
z
" clip-path="url(#p4d26aca4d3)" style="fill: #ff7f0e"/>
   </g>
   <g id="PathCollection_4">
    <path d="M 97.852511 306.555229 
L 93.744592 308.926938 
L 93.744592 313.670354 
L 97.852511 316.042062 
L 101.96043 313.670354 
L 101.96043 308.926938 
z
" clip-path="url(#p4d26aca4d3)" style="fill: #3b7c26"/>
   </g>
   <g id="PathCollection_5">
    <path d="M 603.557424 265.43195 
L 613.044257 270.175367 
L 613.044257 260.688534 
z
" clip-path="url(#p4d26aca4d3)" style="fill: #8d4e4b"/>
   </g>
   <g id="PathCollection_6">
    <path d="M 311.669718 259.401492 
L 306.926301 268.888325 
L 316.413134 268.888325 
z
" clip-path="url(#p4d26aca4d3)" style="fill: #6a1b9a"/>
   </g>
   <g id="PathCollection_7">
    <path d="M 243.419483 45.775526 
L 247.444406 39.067322 
L 243.419483 32.359118 
L 239.394561 39.067322 
z
" clip-path="url(#p4d26aca4d3)" style="fill: #c62828"/>
   </g>
   <g id="PathCollection_8">
    <path d="M 680.798558 262.078277 
L 671.311725 257.33486 
L 671.311725 266.821693 
z
" clip-path="url(#p4d26aca4d3)"/>
   </g>
   <g id="PathCollection_9">
    <path d="M 146.167614 19.555674 
L 141.656357 22.833295 
L 143.379504 28.136595 
L 148.955724 28.136595 
L 150.678871 22.833295 
z
" clip-path="url(#p4d26aca4d3)" style="fill: #fbc02d"/>
   </g>
   <g id="PathCollection_10">
    <path d="M 354.061558 262.635952 
C 355.319527 262.635952 356.526142 262.136156 357.41566 261.246638 
C 358.305178 260.35712 358.804975 259.150505 358.804975 257.892536 
C 358.804975 256.634567 358.305178 255.427952 357.41566 254.538434 
C 356.526142 253.648916 355.319527 253.149119 354.061558 253.149119 
C 352.803589 253.149119 351.596974 253.648916 350.707456 254.538434 
C 349.817938 255.427952 349.318142 256.634567 349.318142 257.892536 
C 349.318142 259.150505 349.817938 260.35712 350.707456 261.246638 
C 351.596974 262.136156 352.803589 262.635952 354.061558 262.635952 
z
" clip-path="url(#p4d26aca4d3)" style="fill: #e040fb"/>
   </g>
   <g id="PathCollection_11">
    <path d="M 114.892061 97.266396 
L 117.263769 94.894688 
L 119.635477 97.266396 
L 122.007185 94.894688 
L 119.635477 92.52298 
L 122.007185 90.151272 
L 119.635477 87.779563 
L 117.263769 90.151272 
L 114.892061 87.779563 
L 112.520353 90.151272 
L 114.892061 92.52298 
L 112.520353 94.894688 
z
" clip-path="url(#p4d26aca4d3)" style="fill: #0000ff"/>
   </g>
   <g id="PathCollection_12">
    <path d="M 100.161877 68.102317 
L 103.813361 68.102317 
L 103.813361 64.450834 
L 107.464844 64.450834 
L 107.464844 60.79935 
L 103.813361 60.79935 
L 103.813361 57.147866 
L 100.161877 57.147866 
L 100.161877 60.79935 
L 96.510393 60.79935 
L 96.510393 64.450834 
L 100.161877 64.450834 
z
" clip-path="url(#p4d26aca4d3)" style="fill: #e377c2"/>
   </g>
   <g id="PathCollection_13">
    <path d="M 324.724644 286.555613 
C 325.982613 286.555613 327.189228 286.055816 328.078746 285.166298 
C 328.968264 284.27678 329.468061 283.070165 329.468061 281.812196 
C 329.468061 280.554227 328.968264 279.347613 328.078746 278.458094 
C 327.189228 277.568576 325.982613 277.06878 324.724644 277.06878 
C 323.466676 277.06878 322.260061 277.568576 321.370542 278.458094 
C 320.481024 279.347613 319.981228 280.554227 319.981228 281.812196 
C 319.981228 283.070165 320.481024 284.27678 321.370542 285.166298 
C 322.260061 286.055816 323.466676 286.555613 324.724644 286.555613 
z
" clip-path="url(#p4d26aca4d3)" style="fill: #8d8e2c"/>
   </g>
   <g id="PathCollection_14">
    <path d="M 354.93468 264.135468 
L 359.678097 254.648635 
L 350.191264 254.648635 
z
" clip-path="url(#p4d26aca4d3)" style="fill: #c0ca33"/>
   </g>
   <g id="PathCollection_15">
    <path d="M 102.823154 119.545286 
L 106.474638 119.545286 
L 106.474638 115.893803 
L 110.126122 115.893803 
L 110.126122 112.242319 
L 106.474638 112.242319 
L 106.474638 108.590835 
L 102.823154 108.590835 
L 102.823154 112.242319 
L 99.17167 112.242319 
L 99.17167 115.893803 
L 102.823154 115.893803 
z
" clip-path="url(#p4d26aca4d3)" style="fill: #d62728"/>
   </g>
   <g id="PathCollection_16">
    <path d="M 84.811554 361.537493 
L 83.746591 364.815113 
L 80.300297 364.815113 
L 83.088408 366.840793 
L 82.023444 370.118414 
L 84.811554 368.092733 
L 87.599665 370.118414 
L 86.534701 366.840793 
L 89.322812 364.815113 
L 85.876518 364.815113 
z
" clip-path="url(#p4d26aca4d3)" style="fill: #ea4335"/>
   </g>
   <g id="PathCollection_17">
    <path d="M 200.227555 304.888108 
L 202.599263 302.5164 
L 204.970971 304.888108 
L 207.34268 302.5164 
L 204.970971 300.144691 
L 207.34268 297.772983 
L 204.970971 295.401275 
L 202.599263 297.772983 
L 200.227555 295.401275 
L 197.855847 297.772983 
L 200.227555 300.144691 
L 197.855847 302.5164 
z
" clip-path="url(#p4d26aca4d3)" style="fill: #5bc0be"/>
   </g>
  </g>
 </g>
 <defs>
  <clipPath id="p4d26aca4d3">
   <rect x="55.249375" y="7.2" width="650.367946" height="376.18"/>
  </clipPath>
 </defs>
</svg>
